<mxfile modified="2020-06-04T02:23:57.134Z" host="app.diagrams.net" agent="5.0 (Windows NT 10.0; Win64; x64) AppleWebKit/537.36 (KHTML, like Gecko) Chrome/74.0.3729.157 Safari/537.36" etag="b9Ze2J3uNO7L1S0xTBgo" version="13.1.11" type="github">
  <diagram id="Ht1M8jgEwFfnCIfOTk4-" name="Page-1">
    <mxGraphModel dx="1038" dy="548" grid="1" gridSize="10" guides="1" tooltips="1" connect="1" arrows="1" fold="1" page="1" pageScale="1" pageWidth="1169" pageHeight="827" math="0" shadow="0">
      <root>
        <mxCell id="0" />
        <mxCell id="1" parent="0" />
        <mxCell id="D808MIH9ffIRfPn5UFVy-1" value="" style="rounded=0;whiteSpace=wrap;html=1;" parent="1" vertex="1">
          <mxGeometry x="297.5" y="200" width="132.5" height="140" as="geometry" />
        </mxCell>
        <mxCell id="D808MIH9ffIRfPn5UFVy-9" style="edgeStyle=orthogonalEdgeStyle;rounded=0;orthogonalLoop=1;jettySize=auto;html=1;exitX=0.982;exitY=0.375;exitDx=0;exitDy=0;exitPerimeter=0;entryX=-0.045;entryY=0.339;entryDx=0;entryDy=0;entryPerimeter=0;" parent="1" source="D808MIH9ffIRfPn5UFVy-2" target="D808MIH9ffIRfPn5UFVy-3" edge="1">
          <mxGeometry relative="1" as="geometry" />
        </mxCell>
        <mxCell id="D808MIH9ffIRfPn5UFVy-20" value="exec python script" style="edgeLabel;html=1;align=center;verticalAlign=middle;resizable=0;points=[];" parent="D808MIH9ffIRfPn5UFVy-9" vertex="1" connectable="0">
          <mxGeometry x="-0.105" y="1" relative="1" as="geometry">
            <mxPoint as="offset" />
          </mxGeometry>
        </mxCell>
        <mxCell id="D808MIH9ffIRfPn5UFVy-2" value="Control M" style="aspect=fixed;perimeter=ellipsePerimeter;html=1;align=center;shadow=0;dashed=0;spacingTop=3;image;image=img/lib/active_directory/generic_server.svg;" parent="1" vertex="1">
          <mxGeometry x="130" y="225" width="44.8" height="80" as="geometry" />
        </mxCell>
        <mxCell id="D808MIH9ffIRfPn5UFVy-10" style="edgeStyle=orthogonalEdgeStyle;rounded=0;orthogonalLoop=1;jettySize=auto;html=1;" parent="1" source="D808MIH9ffIRfPn5UFVy-3" target="D808MIH9ffIRfPn5UFVy-7" edge="1">
          <mxGeometry relative="1" as="geometry" />
        </mxCell>
        <mxCell id="D808MIH9ffIRfPn5UFVy-12" value="run glue job" style="edgeLabel;html=1;align=center;verticalAlign=middle;resizable=0;points=[];" parent="D808MIH9ffIRfPn5UFVy-10" vertex="1" connectable="0">
          <mxGeometry x="0.4151" y="1" relative="1" as="geometry">
            <mxPoint x="19" y="1" as="offset" />
          </mxGeometry>
        </mxCell>
        <mxCell id="D808MIH9ffIRfPn5UFVy-11" style="edgeStyle=orthogonalEdgeStyle;rounded=0;orthogonalLoop=1;jettySize=auto;html=1;" parent="1" source="D808MIH9ffIRfPn5UFVy-3" target="D808MIH9ffIRfPn5UFVy-8" edge="1">
          <mxGeometry relative="1" as="geometry" />
        </mxCell>
        <mxCell id="D808MIH9ffIRfPn5UFVy-16" value="get job logs" style="edgeLabel;html=1;align=center;verticalAlign=middle;resizable=0;points=[];" parent="D808MIH9ffIRfPn5UFVy-11" vertex="1" connectable="0">
          <mxGeometry x="0.5019" relative="1" as="geometry">
            <mxPoint x="7" as="offset" />
          </mxGeometry>
        </mxCell>
        <mxCell id="D808MIH9ffIRfPn5UFVy-19" style="edgeStyle=orthogonalEdgeStyle;rounded=0;orthogonalLoop=1;jettySize=auto;html=1;exitX=0;exitY=0.75;exitDx=0;exitDy=0;" parent="1" source="D808MIH9ffIRfPn5UFVy-3" edge="1">
          <mxGeometry relative="1" as="geometry">
            <mxPoint x="172" y="278" as="targetPoint" />
          </mxGeometry>
        </mxCell>
        <mxCell id="D808MIH9ffIRfPn5UFVy-21" value="returns job run logs" style="edgeLabel;html=1;align=center;verticalAlign=middle;resizable=0;points=[];" parent="D808MIH9ffIRfPn5UFVy-19" vertex="1" connectable="0">
          <mxGeometry x="-0.1672" relative="1" as="geometry">
            <mxPoint x="-20" as="offset" />
          </mxGeometry>
        </mxCell>
        <mxCell id="D808MIH9ffIRfPn5UFVy-3" value="Python Script&lt;br&gt;using boto3" style="shape=image;html=1;verticalAlign=top;verticalLabelPosition=bottom;labelBackgroundColor=#ffffff;imageAspect=0;aspect=fixed;image=https://cdn2.iconfinder.com/data/icons/oxygen/128x128/mimetypes/application-x-python.png" parent="1" vertex="1">
          <mxGeometry x="340" y="240" width="50" height="50" as="geometry" />
        </mxCell>
        <mxCell id="D808MIH9ffIRfPn5UFVy-6" value="EC2 assigned with IAM role" style="text;html=1;resizable=0;autosize=1;align=center;verticalAlign=middle;points=[];fillColor=none;strokeColor=none;rounded=0;" parent="1" vertex="1">
          <mxGeometry x="285" y="340" width="160" height="20" as="geometry" />
        </mxCell>
        <mxCell id="D808MIH9ffIRfPn5UFVy-7" value="AWS Glue" style="outlineConnect=0;fontColor=#232F3E;gradientColor=none;strokeColor=#ffffff;fillColor=#232F3E;dashed=0;verticalLabelPosition=middle;verticalAlign=bottom;align=center;html=1;whiteSpace=wrap;fontSize=10;fontStyle=1;spacing=3;shape=mxgraph.aws4.productIcon;prIcon=mxgraph.aws4.glue;" parent="1" vertex="1">
          <mxGeometry x="620" y="140" width="80" height="100" as="geometry" />
        </mxCell>
        <mxCell id="D808MIH9ffIRfPn5UFVy-8" value="Amazon CloudWatch" style="outlineConnect=0;fontColor=#232F3E;gradientColor=none;strokeColor=#ffffff;fillColor=#232F3E;dashed=0;verticalLabelPosition=middle;verticalAlign=bottom;align=center;html=1;whiteSpace=wrap;fontSize=10;fontStyle=1;spacing=3;shape=mxgraph.aws4.productIcon;prIcon=mxgraph.aws4.cloudwatch;" parent="1" vertex="1">
          <mxGeometry x="620" y="290" width="80" height="110" as="geometry" />
        </mxCell>
      </root>
    </mxGraphModel>
  </diagram>
</mxfile>
